<?xml version="1.0" standalone="yes"?>
<svg xmlns="http://www.w3.org/2000/svg" width="676" height="674">
<path style="fill:#fefefd; stroke:none;" d="M0 0L0 674L676 674L676 0L0 0z"/>
<path style="fill:#dda39e; stroke:none;" d="M270 74L270 76L347.961 72.1288L414 86L414 84L347.961 70.054L270 74z"/>
<path style="fill:#d52025; stroke:none;" d="M200 128C210.328 126.496 221.369 118.483 231.275 114.71C252.383 106.668 275.747 100.746 298.039 98.1288C393.198 86.9567 482.704 136.764 536.776 212.478C593.158 291.426 590.572 406.217 539.273 485.759C518.775 517.544 492.451 548.604 458.514 566.825C434.717 579.602 406.393 599.686 378 600L378 288L350 288L350 630C385.07 630 420.046 617.789 450.808 601.823C501.123 575.706 540.883 537.802 569.751 488.765C648.432 355.108 589.44 172.313 453.49 102.82C396.107 73.488 319.365 59.8977 257 79.8696C243.389 84.2285 230.201 88.1561 216.725 93.2902C211.686 95.2099 204.4 96.8917 201.279 101.765C197.433 107.767 198.548 121.487 200 128z"/>
<path style="fill:#dda39e; stroke:none;" d="M260 76L260 78L266 78L266 76L260 76M252 78L252 80L260 80L260 78L252 78M244 80L244 82L250 82L250 80L244 80z"/>
<path style="fill:#5a5a5c; stroke:none;" d="M250 80L250 82L254 82L254 80L250 80z"/>
<path style="fill:#dda39e; stroke:none;" d="M234 84L234 86L244 84L244 82L234 84M228 86L228 88L232 88L232 86L228 86M416 86L416 88L420 88L420 86L416 86M222 88L222 90L226 90L226 88L222 88z"/>
<path style="fill:#5a5a5c; stroke:none;" d="M226 88L226 90L228 90L228 88L226 88z"/>
<path style="fill:#dda39e; stroke:none;" d="M422 88L422 90L426 90L426 88L422 88M218 90L218 92L222 92L222 90L218 90M428 90L428 92L432 92L432 90L428 90M212 92L212 94L218 94L218 92L212 92M432 92L432 94L436 94L436 92L432 92M208 94L208 96L212 96L212 94L208 94M436 94L436 96L446 98L446 96L436 94M198 98L198 102L208 98L208 96L198 98M294 98L294 100L368 102L368 100L294 98M446 98L452 102L446 98z"/>
<path style="fill:#5a5a5c; stroke:none;" d="M200 100L200 102L202 102L202 100L200 100z"/>
<path style="fill:#dda39e; stroke:none;" d="M282 100L282 102L294 102L294 100L282 100z"/>
<path style="fill:#5a5a5c; stroke:none;" d="M198 102L198 114L200 114L200 102L198 102z"/>
<path style="fill:#dda39e; stroke:none;" d="M272 102L272 104L282 104L282 102L272 102M368 102L368 104L378 104L378 102L368 102M454 102L460 106L454 102M262 104L262 106L270 106L270 104L262 104M378 104L378 106L386 106L386 104L378 104M256 106L256 108L260 108L260 106L256 106M386 106L386 108L394 108L394 106L386 106M460 106L460 108L464 108L464 106L460 106M248 108L248 110L254 110L254 108L248 108M394 108L394 110L400 110L400 108L394 108M464 108L464 110L468 110L468 108L464 108M242 110L242 112L248 112L248 110L242 110M400 110L400 112L404 112L404 110L400 110M468 110L468 112L470 112L470 110L468 110z"/>
<path style="fill:#5a5a5c; stroke:none;" d="M236 112L236 114L238 114L238 112L236 112z"/>
<path style="fill:#dda39e; stroke:none;" d="M238 112L238 114L240 114L240 112L238 112M406 112L406 114L410 114L410 112L406 112M472 112L472 114L474 114L474 112L472 112M170 114L170 116L174 116L174 338C167.697 338.918 154.989 346.263 152 352L174 340L174 352L176 352L176 338L256 338C262.945 338 278.285 341.086 282 334C271.459 338.039 258.185 336 247 336L176 336L176 166L176 127C176 121.167 177.089 115.042 170 114M198 114L198 118L200 118L200 114L198 114M230 114L230 116L234 116L234 114L230 114M412 114L412 116L416 116L416 114L412 114M474 114L474 116L478 116L478 114L474 114z"/>
<path style="fill:#5a5a5c; stroke:none;" d="M170 116L170 118L174 118L174 116L170 116z"/>
<path style="fill:#dda39e; stroke:none;" d="M226 116L226 118L230 118L230 116L226 116M418 116L418 118L422 118L422 116L418 116M478 116L478 118L480 118L480 116L478 116M90 196C100.942 190.3 110.179 170.507 118.383 161.036C126.356 151.833 136.681 142.372 146.478 135.223C152.837 130.583 164.358 124.992 168 118C160.251 119.129 149.834 128.834 144.333 134.333C131.935 146.73 119.351 159.251 107 171.667C101.295 177.402 91.1801 187.902 90 196z"/>
<path style="fill:#d52025; stroke:none;" d="M132 146L132 150C126.705 150.772 122.772 154.705 122 160C115.439 160.964 110.513 170.402 106.777 175.522C95.8921 190.44 74.5821 210.285 74 230L70 230C69.0666 244.354 58.4043 259.431 54.4552 273.289C45.4547 304.872 40.1561 341.947 44.1289 374.91C48.9211 414.673 60.2201 450.835 78.1998 486.8C82.9719 496.346 88.8472 505.679 95.223 514.255C98.8253 519.1 104.481 524.102 106 530L110 530C110.792 535.433 116.433 543.182 122 544C123.005 550.894 129.293 553.822 134.255 557.782C142.411 564.291 150.037 571.306 158.255 577.781C205.028 614.635 265.177 632 324 632L324 606C287.495 606 244.92 599.258 212.51 580.745C198.024 572.47 182.829 564.658 169.745 554.218C163.659 549.362 155.769 539.132 148 538L148 534L144 534C143.416 530.029 141.971 528.584 138 528C137.154 522.192 127.817 510.855 122 510C120.775 500.809 112.421 492.799 107.224 485.522C100.721 476.416 95.7272 464.666 90.8202 454.69C72.6093 417.665 65.3212 368.987 70.1289 328.039C73.7723 297.008 81.8711 260.292 98.7099 233.235C106.202 221.197 113.079 207.786 122.383 197.036C127.569 191.046 138.86 181.82 140 174L144 174L144 301C144 315.688 139.183 340.899 146 354L147 354L148 354C152.691 347.947 166.584 339.903 174 338L174 118C156.598 118.528 147.366 142.044 132 146z"/>
<path style="fill:#dda39e; stroke:none;" d="M222 118L222 120L226 120L226 118L222 118M422 118L422 120L426 120L426 118L422 118M480 118L486 122L480 118M216 120L216 122L222 122L222 120L216 120M426 120L426 122L430 122L430 120L426 120M202 130L201 130L200 130L198 128L198 132C203.256 131.3 213.541 126.69 216 122C210.958 122.672 204.425 125.345 202 130M430 122L430 124L436 124L436 122L430 122M486 122L492 126L486 122z"/>
<path style="fill:#5a5a5c; stroke:none;" d="M198 124L198 128L200 128L200 124L198 124M206 124L206 126L208 126L208 124L206 124z"/>
<path style="fill:#dda39e; stroke:none;" d="M436 124L442 128L436 124M492 126L492 128L494 128L494 126L492 126z"/>
<path style="fill:#5a5a5c; stroke:none;" d="M200 128L200 130L202 130L202 128L200 128z"/>
<path style="fill:#dda39e; stroke:none;" d="M442 128L442 130L446 130L446 128L442 128M494 128L494 130L496 130L496 128L494 128M448 130L448 132L450 132L450 130L448 130M496 130L496 132L500 132L500 130L496 130M450 132L450 134L454 134L454 132L450 132M500 132L500 134L502 134L502 132L500 132M454 134L460 138L454 134M502 134L502 136L504 136L504 134L502 134M504 136L504 138L506 138L506 136L504 136M460 138L460 140L462 140L462 138L460 138M506 138L512 142L506 138M464 140L464 142L466 142L466 140L464 140M466 142L474 148L466 142M512 142L512 144L514 144L514 142L512 142M514 144L514 146L516 146L516 144L514 144M516 146L516 148L518 148L518 146L516 146z"/>
<path style="fill:#5a5a5c; stroke:none;" d="M130 148L130 150L132 150L132 148L130 148z"/>
<path style="fill:#dda39e; stroke:none;" d="M474 148L474 150L478 150L478 148L474 148M518 148L518 150L520 150L520 148L518 148M478 150L478 152L480 152L480 150L478 150M520 150L520 152L522 152L522 150L520 150M480 152L480 154L482 154L482 152L480 152M522 152L522 154L524 154L524 152L522 152M482 154L482 156L484 156L484 154L482 154M524 154L524 156L526 156L526 154L524 154M484 156L490 160L484 156M526 156L526 158L528 158L528 156L526 156z"/>
<path style="fill:#5a5a5c; stroke:none;" d="M120 158L120 160L122 160L122 158L120 158z"/>
<path style="fill:#dda39e; stroke:none;" d="M528 158L528 160L530 160L530 158L528 158M490 160L490 162L492 162L492 160L490 160M530 160L530 162L532 162L532 160L530 160M492 162L492 164L494 164L494 162L492 162M532 162L532 164L534 164L534 162L532 162M494 164L494 166L496 166L496 164L494 164M534 164L534 166L536 166L536 164L534 164M496 166L496 168L498 168L498 166L496 166M536 166L536 170L538 170L538 166L536 166M498 168L498 170L500 170L500 168L498 168M500 170L500 172L502 172L502 170L500 170M538 170L542 174L542 170L538 170M502 172L502 174L504 174L504 172L502 172z"/>
<path style="fill:#5a5a5c; stroke:none;" d="M106 174L106 176L108 176L108 174L106 174z"/>
<path style="fill:#dda39e; stroke:none;" d="M140 174C145.885 218.486 142 265.923 142 311L142 343C142 348.017 140.968 353.362 146 356C139.825 339.883 144 316.201 144 299L144 174L140 174M504 174L504 176L506 176L506 174L504 174M542 174L542 176L544 176L544 174L542 174M506 176L506 178L508 178L508 176L506 176M544 176L548 182L544 176M138 178L138 180L140 180L140 178L138 178M508 178L508 180L510 180L510 178L508 178M136 180L136 182L138 182L138 180L136 180M510 180L510 182L512 182L512 180L510 180M134 182L134 184L136 184L136 182L134 182M512 182L512 184L514 184L514 182L512 182M548 182L548 184L550 184L550 182L548 182M132 184L132 186L134 186L134 184L132 184M514 184L514 186L516 186L516 184L514 184M550 184L554 190L550 184M130 186L130 188L132 188L132 186L130 186M516 186L516 188L518 188L518 186L516 186M128 188L128 190L130 190L130 188L128 188M518 190L518 192L520 192L520 190L518 190M554 190L554 192L556 192L556 190L554 190M126 192L126 194L128 194L128 192L126 192M520 192L520 194L522 194L522 192L520 192M556 192L556 196L558 196L558 192L556 192M124 194L124 196L126 196L126 194L124 194M522 194L522 196L524 196L524 194L522 194M122 196L122 198L124 198L124 196L122 196M524 196L524 198L526 198L526 196L524 196M558 196L558 198L560 198L560 196L558 196M86 198L86 202L88 202L88 198L86 198z"/>
<path style="fill:#5a5a5c; stroke:none;" d="M88 198L88 200L90 200L90 198L88 198z"/>
<path style="fill:#dda39e; stroke:none;" d="M120 198L120 202L122 202L122 198L120 198M526 198L526 202L528 202L528 198L526 198M560 200L560 202L562 202L562 200L560 200M84 202L84 206L86 206L86 202L84 202M118 202L118 204L120 204L120 202L118 202M528 202L528 204L530 204L530 202L528 202M562 202L562 204L564 204L564 202L562 202M116 204L116 206L118 206L118 204L116 204M530 204L530 206L532 206L532 204L530 204M82 206L82 208L84 208L84 206L82 206M564 206L564 208L566 208L566 206L564 206M80 208L80 212L82 212L82 208L80 208M114 208L114 210L116 210L116 208L114 208M532 208L532 210L534 210L534 208L532 208M112 210L110 216L114 210L112 210M534 210L534 214L538 214L534 210M566 210L570 214L570 210L566 210M78 212L78 214L80 214L80 212L78 212z"/>
<path style="fill:#5a5a5c; stroke:none;" d="M78 214L78 216L80 216L80 214L78 214z"/>
<path style="fill:#dda39e; stroke:none;" d="M570 214L570 218L572 218L572 214L570 214M76 216L76 220L78 220L78 216L76 216M108 216L108 220L110 220L110 216L108 216M538 216L538 220L540 220L540 216L538 216M572 218L572 222L574 222L574 218L572 218M74 220L74 224L76 224L76 220L74 220M106 220L106 222L108 222L108 220L106 220M540 220L540 222L542 222L542 220L540 220M574 222L574 226L576 226L576 222L574 222M72 224L70 230L74 224L72 224M104 224L104 226L106 226L106 224L104 224M280 224L278 230L282 230L282 226L310 226L310 478L280 476L280 480L314 478C307.632 461.381 312 436.745 312 419L312 290L312 248C312 242.408 310.506 234.612 314 230L314 229C306.85 220.39 290.26 224 280 224M362 224L362 226L378 226L378 224L362 224M396 224L396 226L442 226L442 224L396 224M542 224L542 226L544 226L544 224L542 224M102 226L102 228L104 228L104 226L102 226z"/>
<path style="fill:#d52025; stroke:none;" d="M282 226C276.334 251.422 280 280.869 280 307C280 313.286 277.136 329.75 282 334L282 335L282 336C271.459 340.039 258.185 338 247 338L176 338C176 344.552 173.018 360.93 177.318 366.106C181.36 370.973 199.087 368 205 368L255 368C263.952 368 273.544 366.76 282 370L282 371L282 372C277.549 375.889 280 389.319 280 395L280 454C280 459.405 277.703 471.755 281.318 476.106C285.453 481.085 303.902 478 310 478L310 226L282 226z"/>
<path style="fill:#dda39e; stroke:none;" d="M348 226L348 256L350 256L350 228L360 228L360 226L348 226z"/>
<path style="fill:#5a5a5c; stroke:none;" d="M350 228L350 256L426 256L426 248L444 252C442.158 248.487 439.807 248.116 436 248L436 230L426 230L426 228L446 228L446 226L350 228z"/>
<path style="fill:#dda39e; stroke:none;" d="M446 226L446 228L452 228L452 226L446 226M544 226L544 230L546 230L546 226L544 226M576 226L576 230L578 230L578 226L576 226z"/>
<path style="fill:#5a5a5c; stroke:none;" d="M72 228L72 230L74 230L74 228L72 228z"/>
<path style="fill:#2f2d2e; stroke:none;" d="M426 228L426 230L436 230L436 248L444 252L426 248L426 256C438.302 256 453.369 255.096 462.215 265.75C474.459 280.497 479.802 301.64 468.269 318.269C465.309 322.536 463.324 326.629 458 328L458 332L448 334L448 338L444 340L443 340L442 340L426 338L426 342L438 340L436 358L444 358L444 360L432 362L432 366C449.204 366 462.868 374.134 470.6 389.6C472.868 394.137 472.665 403.086 476 406L476 407L476 408C471.863 411.615 471.051 424.935 467.285 430.764C455.64 448.793 437.087 448 418 448L418 450L436 450L434 452L434 453L434 454L436 470L442 470L442 472L426 474L426 476C439.239 476 451.971 476.341 464.385 470.95C493.813 458.17 508.813 421.056 501.545 391.285C498.995 380.841 495.2 372.334 488.777 363.745C486.415 360.587 479.02 356.215 479.02 352C479.02 347.785 486.415 343.413 488.777 340.255C494.847 332.137 499.137 322.564 501.545 312.715C508.849 282.833 494.011 245.915 464.385 233.05C451.971 227.659 439.239 228 426 228z"/>
<path style="fill:#5a5a5c; stroke:none;" d="M450 228L450 230L454 230L454 228L450 228z"/>
<path style="fill:#dda39e; stroke:none;" d="M454 228L454 230L458 230L458 228L454 228M100 230L98 236L102 230L100 230z"/>
<path style="fill:#5a5a5c; stroke:none;" d="M458 230L458 232L460 232L460 230L458 230z"/>
<path style="fill:#dda39e; stroke:none;" d="M460 230L460 232L462 232L462 230L460 230M546 230L546 234L548 234L548 230L546 230M68 232L68 236L70 236L70 232L68 232z"/>
<path style="fill:#5a5a5c; stroke:none;" d="M464 232L464 234L466 234L466 232L464 232z"/>
<path style="fill:#dda39e; stroke:none;" d="M578 232L580 240L582 240C581.884 236.193 581.513 233.842 578 232M468 234L468 236L470 236L470 234L468 234M548 234L548 236L550 236L550 234L548 234M66 236L66 240L68 240L68 236L66 236M96 236L96 240L98 240L98 236L96 236z"/>
<path style="fill:#5a5a5c; stroke:none;" d="M470 236L470 238L472 238L472 236L470 236z"/>
<path style="fill:#dda39e; stroke:none;" d="M472 236L472 238L474 238L474 236L472 236M474 238L474 240L490 252C487.29 246.505 480.202 238.904 474 238M550 238L550 242L552 242L552 238L550 238z"/>
<path style="fill:#5a5a5c; stroke:none;" d="M94 240L94 242L96 242L96 240L94 240M476 240L476 242L478 242L478 240L476 240z"/>
<path style="fill:#dda39e; stroke:none;" d="M582 240L582 244L584 244L584 240L582 240M64 242L64 244L66 244L66 242L64 242M94 242L94 244L96 244L96 242L94 242z"/>
<path style="fill:#5a5a5c; stroke:none;" d="M478 242L478 244L480 244L480 242L478 242z"/>
<path style="fill:#dda39e; stroke:none;" d="M552 242L552 246L554 246L554 242L552 242z"/>
<path style="fill:#5a5a5c; stroke:none;" d="M64 244L64 246L66 246L66 244L64 244z"/>
<path style="fill:#dda39e; stroke:none;" d="M92 244L92 250L94 250L94 244L92 244z"/>
<path style="fill:#5a5a5c; stroke:none;" d="M480 244L480 246L482 246L482 244L480 244z"/>
<path style="fill:#dda39e; stroke:none;" d="M584 244L584 248L586 248L586 244L584 244M62 246L62 250L64 250L64 246L62 246z"/>
<path style="fill:#5a5a5c; stroke:none;" d="M482 246L482 248L484 248L484 246L482 246z"/>
<path style="fill:#dda39e; stroke:none;" d="M554 246L554 250L556 250L556 246L554 246z"/>
<path style="fill:#5a5a5c; stroke:none;" d="M484 248L484 250L486 250L486 248L484 248z"/>
<path style="fill:#dda39e; stroke:none;" d="M60 250L60 254L62 254L62 250L60 250M90 250L90 254L92 254L92 250L90 250z"/>
<path style="fill:#5a5a5c; stroke:none;" d="M486 250L486 252L488 252L488 250L486 250z"/>
<path style="fill:#dda39e; stroke:none;" d="M556 250L556 254L558 254L558 250L556 250M586 250L586 254L588 254L588 250L586 250z"/>
<path style="fill:#5a5a5c; stroke:none;" d="M488 252L488 254L490 254L490 252L488 252M60 254L60 256L62 256L62 254L60 254z"/>
<path style="fill:#dda39e; stroke:none;" d="M88 254L88 258L90 258L90 254L88 254z"/>
<path style="fill:#5a5a5c; stroke:none;" d="M490 254L490 256L492 256L492 254L490 254z"/>
<path style="fill:#dda39e; stroke:none;" d="M558 254L558 258L560 258L560 254L558 254M58 256L58 260L60 260L60 256L58 256M410 256L410 258L426 258L426 256L410 256M430 256L430 258L442 258L442 256L430 256z"/>
<path style="fill:#5a5a5c; stroke:none;" d="M442 256L442 258L456 262L456 260L442 256M454 256L454 258L458 258L458 256L454 256z"/>
<path style="fill:#dda39e; stroke:none;" d="M492 256L496 260L492 256M588 256L588 260L590 260L590 256L588 256M446 258L446 260L448 260L448 258L446 258z"/>
<path style="fill:#5a5a5c; stroke:none;" d="M492 258L492 260L494 260L494 258L492 258z"/>
<path style="fill:#dda39e; stroke:none;" d="M86 260L86 264L88 264L88 260L86 260M450 260L450 262L452 262L452 260L450 260z"/>
<path style="fill:#5a5a5c; stroke:none;" d="M494 260L494 262L496 262L496 260L494 260z"/>
<path style="fill:#dda39e; stroke:none;" d="M560 260L560 262L562 262L562 260L560 260M56 262L56 266L58 266L58 262L56 262M454 262L454 264L464 270C461.937 265.816 458.685 262.683 454 262z"/>
<path style="fill:#5a5a5c; stroke:none;" d="M458 262L458 264L460 264L460 262L458 262z"/>
<path style="fill:#dda39e; stroke:none;" d="M496 262L496 266L498 266L498 262L496 262M590 262L590 266L592 266L592 262L590 262z"/>
<path style="fill:#5a5a5c; stroke:none;" d="M84 264L84 266L86 266L86 264L84 264M460 264L460 266L462 266L462 264L460 264M56 266L56 268L58 268L58 266L56 266z"/>
<path style="fill:#dda39e; stroke:none;" d="M84 266L84 268L86 268L86 266L84 266z"/>
<path style="fill:#5a5a5c; stroke:none;" d="M462 266L462 268L464 268L464 266L462 266z"/>
<path style="fill:#dda39e; stroke:none;" d="M498 266L498 270L500 270L500 266L498 266M562 266L562 268L564 268L564 266L562 266M592 266L592 272L594 272L594 266L592 266M54 268L54 272L56 272L56 268L54 268z"/>
<path style="fill:#5a5a5c; stroke:none;" d="M82 270L82 272L84 272L84 270L82 270M464 270L464 272L466 272L466 270L464 270M498 270L498 272L500 272L500 270L498 270z"/>
<path style="fill:#dda39e; stroke:none;" d="M82 272L82 274L84 274L84 272L82 272z"/>
<path style="fill:#5a5a5c; stroke:none;" d="M466 272L466 274L468 274L468 272L466 272z"/>
<path style="fill:#dda39e; stroke:none;" d="M500 272L500 274L502 274L502 272L500 272M564 272L564 276L566 276L566 272L564 272M594 272L594 278L596 278L596 272L594 272M52 274L52 278L54 278L54 274L52 274z"/>
<path style="fill:#5a5a5c; stroke:none;" d="M500 274L500 278L502 278L502 274L500 274M80 276L80 278L82 278L82 276L80 276M468 276L468 278L470 278L470 276L468 276M52 278L52 280L54 280L54 278L52 278z"/>
<path style="fill:#dda39e; stroke:none;" d="M80 278L80 282L82 282L82 278L80 278M502 278L502 284L504 284L504 278L502 278M566 278L566 282L568 282L568 278L566 278M50 280L50 288L52 288L52 280L50 280z"/>
<path style="fill:#5a5a5c; stroke:none;" d="M470 280L470 282L472 282L472 280L470 280z"/>
<path style="fill:#dda39e; stroke:none;" d="M596 280L596 286L598 286L598 280L596 280M470 282L470 284L472 284L472 282L470 282M78 284L78 288L80 288L80 284L78 284z"/>
<path style="fill:#5a5a5c; stroke:none;" d="M472 284L472 286L474 286L474 284L472 284M502 284L502 290L504 290L504 284L502 284z"/>
<path style="fill:#dda39e; stroke:none;" d="M568 284L568 290L570 290L570 284L568 284M348 286L348 527L348 597C348 608.185 350.039 621.459 346 632L350 634L351 634L352 634L362 632L362 630L350 632L350 288L378 288L378 600L386 600L386 598L380 598L380 286L348 286M472 286L472 290L474 290L474 286L472 286M598 286L598 296L600 296L600 286L598 286M48 288L48 298L50 298L50 288L48 288M504 288L504 306L506 306L506 288L504 288M76 290L76 298L78 298L78 290L76 290M570 292L570 298L572 298L572 292L570 292z"/>
<path style="fill:#5a5a5c; stroke:none;" d="M474 294L474 298L476 298L476 294L474 294z"/>
<path style="fill:#dda39e; stroke:none;" d="M600 298L600 310L602 310L602 298L600 298M46 300L46 310L48 310L48 300L46 300M74 300L74 308L76 308L76 300L74 300M572 300L572 310L574 310L574 300L572 300M472 302L472 306L474 306L474 302L472 302z"/>
<path style="fill:#5a5a5c; stroke:none;" d="M502 302L502 310L504 310L504 302L502 302M472 306L472 310L474 310L474 306L472 306z"/>
<path style="fill:#dda39e; stroke:none;" d="M44 310L44 326L46 326L46 310L44 310M72 310L72 322L74 322L74 310L72 310M470 310L470 312L472 312L472 310L470 310M502 310L502 316L504 316L504 310L502 310M574 310L574 322L576 322L576 310L574 310M602 310L604 380L606 380L604 310L602 310z"/>
<path style="fill:#5a5a5c; stroke:none;" d="M470 312L470 314L472 314L472 312L470 312z"/>
<path style="fill:#dda39e; stroke:none;" d="M468 314L468 316L470 316L470 314L468 314z"/>
<path style="fill:#5a5a5c; stroke:none;" d="M500 314L500 318L502 318L502 314L500 314M468 316L468 318L470 318L470 316L468 316z"/>
<path style="fill:#dda39e; stroke:none;" d="M466 318L466 320L468 320L468 318L466 318M500 318L500 322L502 322L502 318L500 318M464 320L462 324L466 320L464 320z"/>
<path style="fill:#5a5a5c; stroke:none;" d="M498 320L498 324L500 324L500 320L498 320M464 322L464 324L466 324L466 322L464 322z"/>
<path style="fill:#dda39e; stroke:none;" d="M70 324L70 382L72 382L72 324L70 324z"/>
<path style="fill:#5a5a5c; stroke:none;" d="M462 324L462 326L464 326L464 324L462 324z"/>
<path style="fill:#dda39e; stroke:none;" d="M498 324L498 326L500 326L500 324L498 324M576 324L576 380L578 380L578 324L576 324M42 326L42 378L44 378L44 326L42 326M458 326L458 328L460 328L460 326L458 326z"/>
<path style="fill:#5a5a5c; stroke:none;" d="M460 326L460 328L462 328L462 326L460 326M496 326L496 328L498 328L498 326L496 326z"/>
<path style="fill:#dda39e; stroke:none;" d="M456 328L456 330L458 330L458 328L456 328M496 328L496 330L498 330L498 328L496 328M452 330L450 334L454 330L452 330z"/>
<path style="fill:#5a5a5c; stroke:none;" d="M454 330L454 332L458 332L458 330L454 330M494 330L494 332L496 332L496 330L494 330M452 332L452 334L454 334L454 332L452 332z"/>
<path style="fill:#dda39e; stroke:none;" d="M494 332L494 334L496 334L496 332L494 332M444 334L444 336L446 336L446 334L444 334z"/>
<path style="fill:#5a5a5c; stroke:none;" d="M446 334L434 336L434 338L442 340L443 340L444 340L448 338L448 334L446 334M492 334L490 338L494 334L492 334z"/>
<path style="fill:#dda39e; stroke:none;" d="M404 342L406 342L406 338L434 338L434 336C426.233 336 405.476 331.956 404 342M492 336L492 338L494 338L494 336L492 336z"/>
<path style="fill:#5a5a5c; stroke:none;" d="M406 338L406 366L432 366L432 362L444 360L444 358L436 358L438 340L426 342L426 338L406 338z"/>
<path style="fill:#dda39e; stroke:none;" d="M490 338L490 340L492 340L492 338L490 338M488 340L488 342L490 342L490 340L488 340z"/>
<path style="fill:#5a5a5c; stroke:none;" d="M486 342L486 344L488 344L488 342L486 342M484 344L484 346L486 346L486 344L484 344M482 346L482 348L484 348L484 346L482 346M480 348L480 350L482 350L482 348L480 348M150 350L150 352L152 352L152 350L150 350M478 350L478 354L480 354L480 350L478 350M144 352L144 354L146 354L146 352L144 352z"/>
<path style="fill:#dda39e; stroke:none;" d="M148 352L148 354L150 354L150 352L148 352z"/>
<path style="fill:#5a5a5c; stroke:none;" d="M174 352L174 360L176 360L176 352L174 352M480 354L484 358L480 354z"/>
<path style="fill:#dda39e; stroke:none;" d="M482 354L482 356L484 356L484 354L482 354z"/>
<path style="fill:#2f2d2e; stroke:none;" d="M426 358L426 360L430 360L430 358L426 358z"/>
<path style="fill:#5a5a5c; stroke:none;" d="M484 358L484 360L486 360L486 358L484 358z"/>
<path style="fill:#dda39e; stroke:none;" d="M174 360L174 370L278 370L278 374L282 372L282 371L282 370C273.306 365.476 259.629 368 250 368L176 368L176 360L174 360z"/>
<path style="fill:#5a5a5c; stroke:none;" d="M486 360L486 362L488 362L488 360L486 360M446 362L446 364L450 364L450 362L446 362M488 362L488 364L490 364L490 362L488 362z"/>
<path style="fill:#2f2d2e; stroke:none;" d="M420 364L420 366L426 366L426 364L420 364z"/>
<path style="fill:#dda39e; stroke:none;" d="M490 364L494 368L490 364z"/>
<path style="fill:#5a5a5c; stroke:none;" d="M176 366L176 368L178 368L178 366L176 366z"/>
<path style="fill:#dda39e; stroke:none;" d="M406 366L406 368L436 368L436 366L406 366z"/>
<path style="fill:#5a5a5c; stroke:none;" d="M436 366L436 368L444 368L444 366L436 366M490 366L490 368L492 368L492 366L490 366z"/>
<path style="fill:#dda39e; stroke:none;" d="M442 368L442 370L446 370L446 368L442 368z"/>
<path style="fill:#5a5a5c; stroke:none;" d="M446 368L446 370L450 370L450 368L446 368M492 368L492 370L494 370L494 368L492 368z"/>
<path style="fill:#dda39e; stroke:none;" d="M448 370L448 372L454 374L448 370z"/>
<path style="fill:#5a5a5c; stroke:none;" d="M452 370L452 372L454 372L454 370L452 370z"/>
<path style="fill:#dda39e; stroke:none;" d="M494 370L494 372L496 372L496 370L494 370z"/>
<path style="fill:#5a5a5c; stroke:none;" d="M454 372L454 374L458 374L458 372L454 372M458 374L464 380L458 374z"/>
<path style="fill:#dda39e; stroke:none;" d="M496 374L496 376L498 376L498 374L496 374M458 376L458 378L460 378L460 376L458 376z"/>
<path style="fill:#5a5a5c; stroke:none;" d="M496 376L496 378L498 378L498 376L496 376z"/>
<path style="fill:#dda39e; stroke:none;" d="M44 378L44 390L46 390L46 378L44 378M460 378L460 380L462 380L462 378L460 378M498 378L498 380L500 380L500 378L498 378z"/>
<path style="fill:#5a5a5c; stroke:none;" d="M464 380L464 382L466 382L466 380L464 380M498 380L498 382L500 382L500 380L498 380z"/>
<path style="fill:#dda39e; stroke:none;" d="M602 380L602 396L604 396L604 380L602 380M72 382L72 396L74 396L74 382L72 382z"/>
<path style="fill:#5a5a5c; stroke:none;" d="M466 382L466 384L468 384L468 382L466 382z"/>
<path style="fill:#dda39e; stroke:none;" d="M500 382L500 386L502 386L502 382L500 382M574 382L574 394L576 394L576 382L574 382M466 384L466 386L468 386L468 384L466 384z"/>
<path style="fill:#5a5a5c; stroke:none;" d="M468 386L468 388L470 388L470 386L468 386M500 386L500 390L502 390L502 386L500 386z"/>
<path style="fill:#dda39e; stroke:none;" d="M502 388L502 394L504 394L504 388L502 388z"/>
<path style="fill:#5a5a5c; stroke:none;" d="M46 390L46 394L48 394L48 390L46 390M470 390L470 392L472 392L472 390L470 390z"/>
<path style="fill:#dda39e; stroke:none;" d="M470 392L470 394L472 394L472 392L470 392M46 394L46 406L48 406L48 394L46 394z"/>
<path style="fill:#5a5a5c; stroke:none;" d="M472 394L472 396L474 396L474 394L472 394M502 394L502 400L504 400L504 394L502 394z"/>
<path style="fill:#dda39e; stroke:none;" d="M74 396L74 406L76 406L76 396L74 396M472 396L472 400L474 400L474 396L472 396M572 396L572 404L574 404L574 396L572 396M600 396L600 406L602 406L602 396L600 396M142 478L146 478L144 474L144 473L144 472L146 472L146 471L146 470C142.251 465.051 144 456.012 144 450C144 432.642 141.523 414.16 148 398C139.367 399.269 142 410.377 142 417L142 478z"/>
<path style="fill:#5a5a5c; stroke:none;" d="M146 470L146 471L146 472L144 472L144 473L144 474L146 478L174 478L174 476L160 476L162 457L162 421L160 404L160 403L160 402L170 400L170 398C164.372 398 151.474 395.582 147.264 399.879C143.17 404.057 144 410.707 144 416L144 454C144 458.577 142.342 466.803 146 470z"/>
<path style="fill:#2f2d2e; stroke:none;" d="M160 402L160 403L160 404C163.623 408.782 162 417.197 162 423C162 439.113 165.79 460.89 160 476L174 476L174 398L160 402z"/>
<path style="fill:#dda39e; stroke:none;" d="M174 398L174 478L176 478L176 398L174 398M504 398L504 418L506 418L506 398L504 398M48 406L50 422L52 422L50 406L48 406M76 406L76 414L78 414L78 406L76 406z"/>
<path style="fill:#5a5a5c; stroke:none;" d="M474 406L474 408L476 408L476 406L474 406z"/>
<path style="fill:#dda39e; stroke:none;" d="M570 406L570 412L572 412L572 406L570 406M598 406L598 416L600 416L600 406L598 406M472 412L472 418L474 418L474 412L472 412z"/>
<path style="fill:#5a5a5c; stroke:none;" d="M502 412L502 422L504 422L504 412L502 412z"/>
<path style="fill:#dda39e; stroke:none;" d="M568 414L566 426L568 426L570 414L568 414M78 416L78 420L80 420L80 416L78 416M596 416L596 422L598 422L598 416L596 416z"/>
<path style="fill:#5a5a5c; stroke:none;" d="M472 418L472 420L474 420L474 418L472 418M78 420L78 422L80 422L80 420L78 420M52 422L52 426L54 426L54 422L52 422z"/>
<path style="fill:#dda39e; stroke:none;" d="M80 422L80 428L82 428L82 422L80 422z"/>
<path style="fill:#5a5a5c; stroke:none;" d="M470 422L470 424L472 424L472 422L470 422z"/>
<path style="fill:#dda39e; stroke:none;" d="M502 422L502 426L504 426L504 422L502 422z"/>
<path style="fill:#5a5a5c; stroke:none;" d="M500 424L500 428L502 428L502 424L500 424z"/>
<path style="fill:#dda39e; stroke:none;" d="M52 426L52 430L54 430L54 426L52 426M468 426L468 428L470 428L470 426L468 426M594 426L594 430L596 430L596 426L594 426M82 428L82 434L84 434L84 428L82 428M466 428L464 432L468 428L466 428M500 428L500 432L502 432L502 428L500 428M564 428L564 432L566 432L566 428L564 428M54 430L54 438L56 438L56 430L54 430z"/>
<path style="fill:#5a5a5c; stroke:none;" d="M466 430L466 432L468 432L468 430L466 430M464 432L464 434L466 434L466 432L464 432M498 432L498 434L500 434L500 432L498 432z"/>
<path style="fill:#dda39e; stroke:none;" d="M592 432L592 438L594 438L594 432L592 432M84 434L84 438L86 438L86 434L84 434M460 434L460 438L464 434L460 434M498 434L498 436L500 436L500 434L498 434M562 434L562 438L564 438L564 434L562 434z"/>
<path style="fill:#5a5a5c; stroke:none;" d="M496 436L496 440L498 440L498 436L496 436z"/>
<path style="fill:#dda39e; stroke:none;" d="M56 438L56 442L58 442L58 438L56 438z"/>
<path style="fill:#5a5a5c; stroke:none;" d="M458 438L458 440L460 440L460 438L458 438z"/>
<path style="fill:#dda39e; stroke:none;" d="M86 440L88 450L90 450L88 440L86 440M454 440L454 442L456 442L456 440L454 440z"/>
<path style="fill:#5a5a5c; stroke:none;" d="M456 440L456 442L458 442L458 440L456 440z"/>
<path style="fill:#dda39e; stroke:none;" d="M560 440L560 444L562 444L562 440L560 440M590 440L590 442L592 442L592 440L590 440M450 442L450 444L452 444L452 442L450 442z"/>
<path style="fill:#5a5a5c; stroke:none;" d="M452 442L452 444L456 444L456 442L452 442z"/>
<path style="fill:#dda39e; stroke:none;" d="M494 442L494 444L496 444L496 442L494 442M58 444L58 448L60 448L60 444L58 444z"/>
<path style="fill:#5a5a5c; stroke:none;" d="M86 444L86 446L88 446L88 444L86 444z"/>
<path style="fill:#dda39e; stroke:none;" d="M446 444L446 446L448 446L448 444L446 444z"/>
<path style="fill:#5a5a5c; stroke:none;" d="M448 444L448 446L452 446L452 444L448 444z"/>
<path style="fill:#dda39e; stroke:none;" d="M408 446L408 448L410 448L410 446L408 446M418 446L418 448L426 448L426 446L418 446M428 446L428 448L442 448L442 446L428 446z"/>
<path style="fill:#5a5a5c; stroke:none;" d="M442 446L442 448L444 448L444 446L442 446z"/>
<path style="fill:#dda39e; stroke:none;" d="M492 446L492 448L494 448L494 446L492 446M558 446L558 450L560 450L560 446L558 446M588 446L588 450L590 450L590 446L588 446z"/>
<path style="fill:#5a5a5c; stroke:none;" d="M60 448L60 450L62 450L62 448L60 448M406 448C406 454.552 403.018 470.93 407.318 476.106C409.633 478.894 414.817 478 418 478L446 478L446 476L426 476L426 474L442 472L442 470L436 470L434 454L434 453L434 452L436 450L406 448M446 448L442 450L442 452L448 448L446 448M490 448L490 450L492 450L492 448L490 448z"/>
<path style="fill:#dda39e; stroke:none;" d="M60 450L60 452L62 452L62 450L60 450M90 450L92 458L94 458L92 450L90 450z"/>
<path style="fill:#5a5a5c; stroke:none;" d="M488 450L488 452L490 452L490 450L488 450z"/>
<path style="fill:#dda39e; stroke:none;" d="M556 450L556 454L558 454L558 450L556 450M586 450L586 454L588 454L588 450L586 450z"/>
<path style="fill:#2f2d2e; stroke:none;" d="M426 452L426 454L428 454L428 452L426 452z"/>
<path style="fill:#5a5a5c; stroke:none;" d="M486 452L476 464L488 452L486 452z"/>
<path style="fill:#dda39e; stroke:none;" d="M62 454L62 458L64 458L64 454L62 454z"/>
<path style="fill:#5a5a5c; stroke:none;" d="M90 454L90 456L92 456L92 454L90 454z"/>
<path style="fill:#dda39e; stroke:none;" d="M486 454L486 456L488 456L488 454L486 454M554 454L554 458L556 458L556 454L554 454M484 456L484 458L486 458L486 456L484 456M584 456L584 460L586 460L586 456L584 456M482 458L482 460L484 460L484 458L482 458M552 458L550 466C553.513 464.158 553.884 461.807 554 458L552 458M64 460L64 464L66 464L66 460L64 460M94 460L94 462L96 462L96 460L94 460M480 460L480 462L482 462L482 460L480 460M582 460L582 464L584 464L584 460L582 460M478 462L478 464L480 464L480 462L478 462M66 464L66 468L68 468L68 464L66 464M96 464L100 470L96 464M474 464L474 466L478 466L478 464L474 464M580 464L580 468L582 468L582 464L580 464z"/>
<path style="fill:#5a5a5c; stroke:none;" d="M464 466L464 468L466 468L466 466L464 466M470 466L470 468L472 468L472 466L470 466z"/>
<path style="fill:#dda39e; stroke:none;" d="M472 466L472 468L474 468L474 466L472 466M68 468C68.1683 473.7 70.6847 481.231 76 484L70 468L68 468M468 468L468 470L470 470L470 468L468 468M548 468L546 474L550 468L548 468M464 470L464 472L466 472L466 470L464 470M578 470L578 474L580 474L580 470L578 470M100 472L100 474L102 474L102 472L100 472z"/>
<path style="fill:#5a5a5c; stroke:none;" d="M458 472L458 474L460 474L460 472L458 472z"/>
<path style="fill:#dda39e; stroke:none;" d="M460 472L460 474L462 474L462 472L460 472M404 474L404 476L406 476L406 474L404 474z"/>
<path style="fill:#5a5a5c; stroke:none;" d="M450 474L450 476L454 476L454 474L450 474z"/>
<path style="fill:#dda39e; stroke:none;" d="M454 474L454 476L458 476L458 474L454 474M544 474L544 478L546 478L546 474L544 474M576 474L576 476L578 476L578 474L576 474M102 476L102 478L104 478L104 476L102 476M406 476L406 478L408 478L408 476L406 476M446 476L446 478L450 478L450 476L446 476M104 478L104 482L106 482L106 478L104 478M158 478L158 480L174 480L174 478L158 478M408 478L408 480L426 480L426 478L408 478M542 478L542 482L544 482L544 478L542 478M574 478L574 482L576 482L576 478L574 478M106 482L108 488L110 488L106 482M540 482L540 484L542 484L542 482L540 482M572 482L572 486L574 486L574 482L572 482M76 484L76 488L78 488L78 484L76 484z"/>
<path style="fill:#5a5a5c; stroke:none;" d="M106 484L106 486L108 486L108 484L106 484z"/>
<path style="fill:#dda39e; stroke:none;" d="M570 486L570 488L572 488L572 486L570 486M78 488L78 492L80 492L80 488L78 488M110 488L110 490L112 490L112 488L110 488M536 488L534 494L538 488L536 488M568 490L568 492L570 492L570 490L568 490M80 492L80 496L82 496L82 492L80 492M112 492L112 494L114 494L114 492L112 492M566 492L566 496L568 496L568 492L566 492M114 494L114 496L116 496L116 494L114 494M532 494L532 496L534 496L534 494L532 494M82 496L82 498L84 498L84 496L82 496M116 496L120 502L116 496M530 496L528 502L532 496L530 496M564 496L564 498L566 498L566 496L564 496M84 498L84 502L86 502L86 498L84 498M562 500L562 502L564 502L564 500L562 500M86 502L90 508L86 502M120 502L120 506L122 506L122 502L120 502M526 502L524 508L528 502L526 502M560 502L560 506L562 506L562 502L560 502M122 506L126 510L122 506M558 506L558 508L560 508L560 506L558 506M90 508L94 514L90 508z"/>
<path style="fill:#5a5a5c; stroke:none;" d="M122 508L122 510L124 510L124 508L122 508z"/>
<path style="fill:#dda39e; stroke:none;" d="M522 508L522 510L524 510L524 508L522 508M556 508L556 512L558 512L558 508L556 508M126 510L126 512L128 512L128 510L126 510M520 510L520 512L522 512L522 510L520 510M128 512L132 518L128 512M518 512L516 518L520 512L518 512M554 512L554 514L556 514L556 512L554 512M94 514L100 522L94 514M552 514L552 516L554 516L554 514L552 514M550 516L550 520L552 520L552 516L550 516M132 518L132 520L134 520L134 518L132 518M514 518L514 520L516 520L516 518L514 518M134 520L134 522L136 522L136 520L134 520M512 520L512 522L514 522L514 520L512 520M548 520L548 522L550 522L550 520L548 520M100 522L100 524L102 524L102 522L100 522M136 522L136 524L138 524L138 522L136 522M510 522L510 524L512 524L512 522L510 522M546 522L546 524L548 524L548 522L546 522M102 524L106 530L102 524M138 524L142 528L138 524M508 524L508 526L510 526L510 524L508 524M544 524L544 528L546 528L546 524L544 524z"/>
<path style="fill:#5a5a5c; stroke:none;" d="M138 526L138 528L140 528L140 526L138 526z"/>
<path style="fill:#dda39e; stroke:none;" d="M506 526L506 528L508 528L508 526L506 526M142 528L142 530L144 530L144 528L142 528M500 534L506 528C502.029 528.584 500.584 530.029 500 534M542 528L542 530L544 530L544 528L542 528M106 530L110 534L106 530z"/>
<path style="fill:#5a5a5c; stroke:none;" d="M108 530L108 532L110 532L110 530L108 530z"/>
<path style="fill:#dda39e; stroke:none;" d="M144 530L148 534L144 530M540 530L538 534L542 534L542 530L540 530z"/>
<path style="fill:#5a5a5c; stroke:none;" d="M144 532L144 534L146 534L146 532L144 532z"/>
<path style="fill:#dda39e; stroke:none;" d="M110 534L110 536L112 536L112 534L110 534M148 534L152 538L148 534M498 534L498 536L500 536L500 534L498 534M536 534L534 540L538 534L536 534M112 536L116 542L112 536z"/>
<path style="fill:#5a5a5c; stroke:none;" d="M148 536L148 538L150 538L150 536L148 536z"/>
<path style="fill:#dda39e; stroke:none;" d="M496 536L496 538L498 538L498 536L496 536M152 538L152 540L154 540L154 538L152 538M494 538L494 540L496 540L496 538L494 538M154 540L154 542L156 542L156 540L154 540M492 540L492 542L494 542L494 540L492 540M532 540L532 542L534 542L534 540L532 540M116 542L116 544L118 544L118 542L116 542M156 542L156 544L158 544L158 542L156 542M490 542L490 544L492 544L492 542L490 542M530 542L530 544L532 544L532 542L530 542M118 544L122 548L118 544z"/>
<path style="fill:#5a5a5c; stroke:none;" d="M120 544L120 546L122 546L122 544L120 544z"/>
<path style="fill:#dda39e; stroke:none;" d="M158 544L158 546L160 546L160 544L158 544M484 548L490 544L484 548M528 544L528 546L530 546L530 544L528 544z"/>
<path style="fill:#5a5a5c; stroke:none;" d="M160 546L160 548L162 548L162 546L160 546z"/>
<path style="fill:#dda39e; stroke:none;" d="M526 546L526 548L528 548L528 546L526 546M122 548L122 550L124 550L124 548L122 548M164 548L164 550L166 550L166 548L164 548M482 548L482 550L484 550L484 548L482 548M524 548L524 550L526 550L526 548L524 548M124 550L124 552L126 552L126 550L124 550M166 550L166 552L168 552L168 550L166 550M474 556L482 550L474 556M126 552L126 554L128 554L128 552L126 552M168 552L168 554L170 554L170 552L168 552M520 552L520 554L522 554L522 552L520 552M128 554L128 556L130 556L130 554L128 554M170 554L170 556L174 556L174 554L170 554M518 554L518 556L520 556L520 554L518 554M130 556L138 562L130 556M174 556L174 558L176 558L176 556L174 556M472 556L472 558L474 558L474 556L472 556M516 556L516 558L518 558L518 556L516 556M176 558L176 560L178 560L178 558L176 558M466 562L472 558L466 562M514 558L514 560L516 560L516 558L514 558M180 560L180 562L182 562L182 560L180 560M512 560L512 562L514 562L514 560L512 560M138 562L138 566L142 566L138 562M182 562L182 564L186 564L186 562L182 562M460 566L466 562L460 566M506 566L512 562L506 566z"/>
<path style="fill:#5a5a5c; stroke:none;" d="M184 564L184 566L186 566L186 564L184 564z"/>
<path style="fill:#dda39e; stroke:none;" d="M142 566L142 568L144 568L144 566L142 566M188 566L188 568L192 568L192 566L188 566M504 566L504 568L506 568L506 566L504 566M144 568L144 570L146 570L146 568L144 568M192 568L192 570L194 570L194 568L192 568M454 568L454 570L456 570L456 568L454 568M502 568L502 570L504 570L504 568L502 568M146 570L146 572L148 572L148 570L146 570M196 570L196 572L198 572L198 570L196 570M450 570L450 572L454 572L454 570L450 570M498 570L498 572L502 572L502 570L498 570M148 572L154 576L148 572M198 572L198 574L202 574L202 572L198 572M446 572L446 574L450 574L450 572L446 572M496 572L496 574L498 574L498 572L496 572M202 574L202 576L206 576L206 574L202 574M440 578L446 574L440 578M494 574L494 576L496 576L496 574L494 574M154 576L160 580L154 576M206 576L206 578L210 578L210 576L206 576M492 576L492 578L494 578L494 576L492 576M210 578L210 580L212 580L212 578L210 578M434 578L434 580L438 580L438 578L434 578M488 578L488 580L492 580L492 578L488 578M160 580L160 582L162 582L162 580L160 580M212 580L212 582L218 582L218 580L212 580M432 580L432 582L434 582L434 580L432 580M486 580L486 582L488 582L488 580L486 580M162 582L168 586L162 582M218 582L218 584L222 584L222 582L218 582M426 582L426 584L430 584L430 582L426 582M484 582L480 584L480 586L486 586L486 582L484 582M222 584L222 586L226 586L226 584L222 584M422 584L422 586L426 586L426 584L422 584M168 586L168 588L170 588L170 586L168 586M226 586L226 588L232 588L232 586L226 586M418 586L418 588L422 588L422 586L418 586M478 586L478 588L480 588L480 586L478 586M172 588L172 590L174 590L174 588L172 588M232 588L232 590L236 590L236 588L232 588M412 588L412 590L416 590L416 588L412 588M474 588L474 590L478 590L478 588L474 588M174 590L174 592L176 592L176 590L174 590M238 590L238 592L242 592L242 590L238 590M406 590L406 592L410 592L410 590L406 590M472 590L472 592L474 592L474 590L472 590M178 592L178 594L180 594L180 592L178 592M244 592L244 594L248 594L248 592L244 592M400 592L400 594L406 594L406 592L400 592M468 592L468 594L470 594L470 592L468 592M182 594L182 596L184 596L184 594L182 594M250 594L250 596L256 596L256 594L250 594M386 596L386 598L400 596L400 594L386 596M464 594L464 596L468 596L468 594L464 594M184 596L184 598L186 598L186 596L184 596M256 596L256 598L262 598L262 596L256 596M460 596L460 598L464 598L464 596L460 596M188 598L188 600L192 600L192 598L188 598M264 598L264 600L272 600L272 598L264 598M192 600C193.842 603.513 196.193 603.885 200 604L200 602L192 600M272 600L272 602L282 602L282 600L272 600M448 602L448 604L458 602L458 600L448 602M282 602L282 604L294 604L294 602L282 602M200 604C201.842 607.513 204.193 607.885 208 608L208 606L200 604M298 604L298 606L324 606L324 604L298 604M446 604L446 606L448 606L448 604L446 604M324 606L324 632L282 630L282 632L326 634L326 606L324 606M442 606L442 608L446 608L446 606L442 606M208 608L208 610L212 610L212 608L208 608M436 608L436 610L440 610L440 608L436 608M212 610L212 612L216 612L216 610L212 610M432 610L432 612L436 612L436 610L432 610M218 612L218 614L220 614L220 612L218 612M428 612L428 614L432 614L432 612L428 612M222 614L222 616L226 616L226 614L222 614M422 614L422 616L426 616L426 614L422 614M228 616L228 618L232 618L232 616L228 616M418 616L418 618L420 618L420 616L418 616M234 618L234 620L238 620L238 618L234 618M410 618L410 620L416 620L416 618L410 618M238 620L238 622L244 622L244 620L238 620M404 620L404 622L410 622L410 620L404 620M246 622L246 624L250 624L250 622L246 622M396 622L396 624L402 624L402 622L396 622M252 624L252 626L268 628L268 626L252 624M388 624L388 626L394 626L394 624L388 624M378 626L378 628L388 628L388 626L378 626M270 628L270 630L282 630L282 628L270 628M368 628L368 630L378 630L378 628L368 628z"/>
<path style="fill:#5a5a5c; stroke:none;" d="M350 630L350 632L352 632L352 630L350 630z"/>
</svg>
